<svg xmlns="http://www.w3.org/2000/svg" xmlns:xlink="http://www.w3.org/1999/xlink" version="1.1" x="0px" y="0px" viewBox="0 0 100 125" style="enable-background:new 0 0 100 100;" xml:space="preserve"><g><path d="M88.7762909,58.3170853c-0.140152,0-0.2802963-0.0143127-0.4194565-0.0439224   c-0.5487442-0.1164589-1.0244522-0.4554749-1.312645-0.9361191L70.4486237,29.7305641   c-0.2773361-0.460413-0.3592529-1.0126114-0.2279892-1.5337219c0.1302795-0.5211086,0.4638672-0.9686909,0.9257584-1.244051   l23.2979507-13.8829355c0.9583282-0.5709505,2.1989288-0.2566071,2.7703705,0.7017221   c0.5714417,0.9593153,0.2575912,2.1999121-0.7017212,2.7713566L74.9589844,29.387104l14.4321747,24.0085526l4.3682404-3.0634918   c0.9149017-0.6400375,2.1732635-0.4194565,2.815773,0.4944611c0.6405258,0.9139137,0.4194489,2.1747437-0.4944687,2.8157692   l-6.1437607,4.3085289C89.5944672,58.191246,89.1878433,58.3170853,88.7762909,58.3170853z"/></g><g><path d="M11.223712,58.3175774c-0.4115582,0-0.818182-0.1258354-1.1606541-0.3661575l-6.143765-4.3085327   c-0.9139159-0.6410255-1.1349928-1.9018517-0.494462-2.8157692c0.6415176-0.9129295,1.900866-1.1340065,2.8157692-0.4944611   l4.3682418,3.0634918L25.0410156,29.387598L3.4870086,16.5434265c-0.9593155-0.5714436-1.2731657-1.8120394-0.7017214-2.7713556   c0.571444-0.9588223,1.8140147-1.2721786,2.7703693-0.7017212l23.2979469,13.8829355   c0.4618931,0.2753582,0.7954826,0.7229404,0.9257603,1.244051c0.1312637,0.5211086,0.0493469,1.0733089-0.2279854,1.53372   L12.9558096,57.3375359c-0.2881899,0.4806442-0.7638998,0.819664-1.312644,0.9361229   C11.5040054,58.3032684,11.3638582,58.3175774,11.223712,58.3175774z"/></g><g><path d="M76.2055054,70.0109634c-1.0136032,0-2.0212784-0.2580872-2.9134827-0.7456436l-14.3166962-7.7618675   c-0.9820175-0.5319672-1.3462029-1.7592392-0.8132477-2.7402687c0.5319672-0.9820137,1.7597313-1.345211,2.7397728-0.8137398   l14.3226204,7.7653236c0.8507538,0.464859,1.9344254,0.2477264,2.5404129-0.4673157   c0.6188202-0.7318268,0.6494141-1.8164864,0.0740204-2.577919c-0.0927734-0.1164589-0.1993637-0.2294655-0.3108902-0.3232231   L65.324379,52.041069l-12.2638474-7.6108704c-0.8329849-0.5151863-1.8574409-0.6494102-2.8068848-0.3651695l-3.8056793,1.1571999   l-4.126442,4.5291138c-1.6028061,1.7636795-3.8964767,2.7762909-6.2908211,2.7762909   c-0.9839859,0-1.9521866-0.1692619-2.8769569-0.5028496c-1.4488449-0.5166702-2.59272-1.6447525-3.1335678-3.0926094   c-0.5418358-1.4508171-0.4164944-3.0570793,0.3434582-4.4057465l6.0203953-10.6832428   c0.2496986-0.443634,0.6573105-0.7767296,1.1409149-0.9336548c5.8772888-1.8988934,11.813797-3.102478,18.151001-3.6798439   c0.2329216-0.0192471,0.4678154-0.0024681,0.6938286,0.0572414l13.1471672,3.4286671l4.5034485-1.6901531   c1.0451813-0.391325,2.2107697,0.1371861,2.6025925,1.1823673c0.392807,1.0451775-0.1362,2.2102737-1.1813812,2.6025848   l-5.1035233,1.9151802c-0.3918152,0.1470528-0.8162079,0.168766-1.2208557,0.0631638l-13.4244957-3.5007133   c-5.6344986,0.5364075-10.9373817,1.5949135-16.1741409,3.2297935l-5.6335144,9.9933662   c-0.237854,0.4214287-0.151001,0.8117676-0.0779686,1.006691c0.0720482,0.1929474,0.2605553,0.5408478,0.7115936,0.7017212   c1.6857109,0.61092,3.6290131,0.1144867,4.8123665-1.1887817l4.5024681-4.9416618   c0.2447624-0.2689438,0.5586128-0.4668274,0.9060211-0.5729218l4.3465271-1.3215294   c2.0647011-0.6168442,4.2863274-0.3261871,6.10429,0.7994308l12.3911629,7.6898232   c0.0838852,0.051815,0.1628418,0.1095505,0.237854,0.1732101L80.132576,59.2551804   c0.3187866,0.2679558,0.61586,0.5768738,0.9040451,0.9420433c1.7321014,2.2892303,1.6432724,5.4973106-0.1855469,7.6607094   C79.6923981,69.2268295,77.9997787,70.0109634,76.2055054,70.0109634z"/></g><g><path d="M79.4525681,63.4714317c-0.6237488,0-1.2386246-0.2872009-1.6343918-0.8290367   c-0.6582947-0.9015808-0.4608994-2.165863,0.4401855-2.8246536c2.824646-2.0627251,5.334465-4.4866753,7.4613419-7.2057228   c0.6888885-0.8793716,1.9590988-1.0328445,2.8374786-0.3464203c0.8793793,0.6879044,1.0343246,1.9581108,0.3464203,2.8374825   c-2.3558502,3.0121727-5.1360855,5.6966782-8.2607727,7.9794922   C80.2835846,63.3451004,79.8661041,63.4714317,79.4525681,63.4714317z"/></g><g><path d="M70.5275803,76.5021362c-0.9879379,0-1.9788361-0.2526627-2.8641281-0.7303467l-13.5952415-7.3241577   c-0.9830055-0.5294952-1.3501511-1.7552872-0.8211441-2.7382889c0.529007-0.9825134,1.7547989-1.3496552,2.7378006-0.8206482   l13.5962257,7.324646c0.8428574,0.4530106,1.8554688,0.2423019,2.4575043-0.4485626   c0.3523407-0.4066238,0.5221024-0.9316864,0.4737396-1.4745102c-0.0473785-0.5423279-0.3069458-1.0288925-0.7293549-1.3713608   l-1.8722458-1.5263214c-0.8655548-0.7056732-0.9948502-1.9788361-0.2891769-2.843895   c0.7046814-0.8655586,1.9788361-0.9933701,2.843399-0.2896729l1.8673096,1.5223694   c1.2761307,1.0338287,2.0617447,2.509819,2.2068253,4.1530914c0.1460648,1.6432724-0.3691177,3.234726-1.4488449,4.4817352   C73.9335403,75.7436676,72.2715225,76.5021362,70.5275803,76.5021362z"/></g><g><path d="M65.1042862,82.4529495c-0.8142319,0-1.6432724-0.1825867-2.3982887-0.528511l-13.1293983-6.0988541   c-1.0126114-0.4702835-1.4518051-1.6723938-0.9810295-2.6849976c0.4688034-1.0131073,1.6718941-1.4508209,2.6845055-0.9815292   l13.1185455,6.0944214c0.6553345,0.3005295,1.4685822,0.1332397,1.9383698-0.3829346   c0.6099319-0.6671829,0.5822983-1.6812744-0.0582352-2.3124237l-1.1645966-1.1537476   c-0.7935104-0.785614-0.7994308-2.0656891-0.0138168-2.8587036c0.7846222-0.7930145,2.0656815-0.7989349,2.8582077-0.0133209   l1.1606522,1.1497955c2.1930008,2.1594467,2.28479,5.6359787,0.2062683,7.9109039   C68.2536469,81.7734375,66.7140045,82.4529495,65.1042862,82.4529495z"/></g><g><path d="M57.3093529,86.8374786c-0.6750717,0-1.3590317-0.1051102-2.0301552-0.324707   c-3.3842545-1.0979843-7.0872917-2.5162277-11.3153839-4.3346863c-1.025444-0.4411621-1.4991798-1.6299438-1.0580139-2.6553879   c0.4401817-1.025444,1.6274834-1.5001678,2.6548996-1.0585022c4.1126213,1.7686157,7.7011719,3.1444244,10.9699516,4.2049026   c1.107357,0.3617172,2.3035393-0.0912933,2.9233437-1.093544l0.2358818-0.3691177   c0.2891769-0.4638672,0.4125481-1.0205078,0.3464203-1.5924454c-0.1273155-1.1093292,0.6681671-2.1115799,1.7774963-2.2388992   c1.109333-0.1268234,2.1120758,0.6671829,2.2393913,1.7770081c0.1687698,1.4690704-0.1667938,2.964798-0.9454994,4.2118073   l-0.2309456,0.3617172C61.657856,85.6975479,59.5319672,86.8374786,57.3093529,86.8374786z"/></g><g><path d="M37.6700287,37.7070961c-0.1598854,0-0.322731-0.0192451-0.4845924-0.0592194   c-5.5407372-1.3629761-9.8724613-3.3013458-11.9618359-4.3351784c-0.9997807-0.4954491-1.4093647-1.7079163-0.9139156-2.7081909   c0.494463-1.0002747,1.7064381-1.4123249,2.7081909-0.9149017c1.9403458,0.9607944,5.9671021,2.7619781,11.1328011,4.0331726   c1.0846558,0.2664757,1.7468987,1.361496,1.480423,2.4456596C39.4041023,37.089756,38.5780258,37.7070961,37.6700287,37.7070961z"/></g><g><path d="M17.6487579,64.0744553c-0.5526924,0-1.1034107-0.2255135-1.5021381-0.6681633   c-1.9995613-2.2181702-4.1461782-5.4558601-5.5950212-7.7811165c-0.5901966-0.9474716-0.3010197-2.1939888,0.6464529-2.7841835   c0.9484587-0.5911865,2.1939898-0.3010216,2.7841864,0.64645c1.1162405,1.790329,3.2707529,5.1084557,5.1666842,7.212635   c0.7481079,0.8295288,0.6809959,2.1071358-0.1480427,2.8547516C18.6139946,63.902729,18.1303902,64.0744553,17.6487579,64.0744553z   "/></g><g><path d="M19.7825451,71.89505c-2.0390396,0-4.006032-1.0461655-5.0294991-2.8902817   c-0.0236874-0.0434265-0.0463867-0.0883331-0.0681-0.1337357c-0.6849432-1.261322-0.8142338-2.8838654-0.3227329-4.391922   c0.4332714-1.2998161,1.0540628-2.5369568,1.8495445-3.6911964c0.8083134-1.1981583,1.8564548-2.3889122,3.1049461-3.5209465   c1.1369667-1.0288963,2.5946922-1.5796127,4.1323605-1.5218773c1.6107025,0.0493469,3.1414623,0.7713013,4.1984863,1.9808121   c1.3244877,1.5263176,1.7646675,3.6645432,1.1547318,5.5861359c-0.3385239,1.0644264-1.4774647,1.6501808-2.538435,1.3146172   c-1.0639324-0.338028-1.6521549-1.4745026-1.3146191-2.5384331c0.187521-0.5887184,0.0532951-1.2425728-0.3503666-1.7069321   c-0.3207588-0.3671455-0.7747555-0.5803261-1.2741528-0.595623c-0.4865665-0.0217133-0.937603,0.1549492-1.2938919,0.477684   c-1.0066891,0.9124336-1.840662,1.855957-2.4792194,2.8019485c-0.5911827,0.8576622-1.0412331,1.7538147-1.3501472,2.6795731   c-0.1431084,0.4377136-0.119421,0.9124374,0.0681,1.2568817c0.0148029,0.0281296,0.0296078,0.0567474,0.0444126,0.0858612   c0.5003834,0.836937,1.5988579,0.9425354,2.350914,0.5472641c0.988924-0.5171585,2.2117558-0.1352081,2.727932,0.8532181   c0.5181484,0.9889221,0.136198,2.2107697-0.852726,2.7284241C21.6607113,71.676445,20.7142258,71.89505,19.7825451,71.89505z"/></g><g><path d="M39.1790771,87.2149887c-0.1766624,0-0.3523407-0.0078964-0.5290031-0.0236893   c-1.8268471-0.1628494-3.4039917-1.1335144-4.3396225-2.6657486c-0.0296097-0.0434265-0.0562553-0.086853-0.0819168-0.1292953l0,0   c-0.7530441-1.2874756-0.9287186-2.9050827-0.4836044-4.4378204c0.3533287-1.193718,0.8773994-2.3563461,1.5613556-3.4646912   c0.5862465-0.9509201,1.8307915-1.2460251,2.7812233-0.6602631c0.9494476,0.5857544,1.245533,1.8307877,0.6592827,2.7812195   c-0.4954491,0.8043671-0.8734512,1.639328-1.1221619,2.4811935c-0.1292877,0.4446259-0.1036301,0.8882599,0.0710602,1.2183914   c0.0187531,0.0286255,0.0365181,0.0572433,0.0542831,0.086853c0.3553009,0.598587,0.9415512,0.7352753,1.2593498,0.7639008   c0.6099358,0.0537872,1.2159233-0.1855469,1.6116905-0.6439896c0.9780655-1.1201859,1.788353-2.3025513,2.4535561-3.3117065   c0.3039818-0.4653473,0.611908-0.9445114,0.919838-1.4236755c0.477684-0.7490997,0.4007034-1.6368561-0.1450806-2.2236023   c-0.6711273-0.7288589-1.8673096-0.7377472-2.5690308-0.0542831c-0.1125145,0.1046219-0.1806145,0.1712341-0.2477264,0.2447662   c-0.7550163,0.8216324-2.0321312,0.8773956-2.8552475,0.1213913c-0.8221283-0.7555084-0.8764114-2.0341034-0.1213951-2.8562317   c0.1440964-0.1564331,0.2872047-0.3000336,0.4431419-0.4441299c1.0629463-1.0353088,2.5157356-1.6264877,4.0514297-1.6264877   c1.6195869,0,3.1750183,0.681488,4.2665863,1.8702698c1.7932892,1.9245529,2.0548325,4.840004,0.6257248,7.0788956   c-0.3612213,0.5630569-0.6750717,1.0520935-0.9899101,1.5322418c-0.7411995,1.1266022-1.6491928,2.4486237-2.7812233,3.7454758   C42.5465508,86.471817,40.8963699,87.2149887,39.1790771,87.2149887z"/></g><g><path d="M24.5593834,77.3573303c-0.4234009,0-0.8438416-0.0409622-1.2544136-0.124855   c-1.8150024-0.371582-3.2411442-1.5514832-3.9162178-3.2386703c-0.0128307-0.0310898-0.0266495-0.0641556-0.0384922-0.0967255   l-0.0009861,0.0004959c-0.7106056-1.8357315-0.5132141-3.9290466,0.5132141-5.4637604   c1.6383362-2.4466476,3.5638771-4.7566032,5.4262524-6.9905663c0.4421539-0.5299911,0.8833199-1.0580101,1.3175774-1.5860291   c1.125124-1.3659401,2.7180614-2.1900444,4.4866772-2.3208122c1.7172928-0.1297836,3.3990555,0.4199448,4.5982018,1.5016441   c0.2901611,0.2620354,0.5359116,0.5359116,0.7560043,0.8389053c1.6551132,2.2818298,1.3994942,5.692234-0.6237526,8.2913704   l-0.0661278,0.0853729c-1.7281494,2.217186-3.5145302,4.5098648-5.6532497,6.6668472   c0,0.0004959-0.000988,0.0009842-0.000988,0.0014801C28.5525837,76.4814072,26.5174923,77.3573303,24.5593834,77.3573303z    M28.6690445,73.4973679h0.0098686H28.6690445z M23.1174488,72.4329376   c0.0078964,0.0182571,0.0157909,0.0370102,0.0226994,0.0557632c0.0621796,0.156929,0.2526608,0.6351013,0.9751072,0.7831497   c0.7431736,0.151001,2.0005493-0.072052,3.119751-1.1991501c1.9679775-1.9852448,3.6023674-4.0830078,5.3334789-6.3036499   l0.066124-0.084877c0.9079971-1.1675644,1.1349945-2.6129494,0.5378876-3.4360657   c-0.0542793-0.0750084-0.1134987-0.1406403-0.1904793-0.2097282c-0.3710938-0.3340836-0.9731331-0.5196304-1.5909653-0.4702835   c-0.4648533,0.03405-1.1300564,0.2112083-1.6639977,0.8596344c-0.4401798,0.5339394-0.8862801,1.0683746-1.3333702,1.6047859   c-1.7952614,2.1535187-3.6527023,4.3800812-5.1716194,6.6500702   C22.8815689,71.1918488,22.9230194,71.9276199,23.1174488,72.4329376z"/></g><g><path d="M31.0791759,83.6017609c-0.3967533,0-0.7905464-0.0360184-1.1784172-0.1100464   c-1.8623753-0.3553009-3.3546448-1.5317459-4.0978184-3.2288055c-0.0148029-0.032074-0.0296078-0.0666199-0.0434246-0.1006699   l-0.000988,0.0004959c-0.6346092-1.5006561-0.5724316-3.3378677,0.1687679-5.0408478   c1.3156052-3.0491867,3.4799881-5.8432388,6.6145401-8.5351486c2.6114731-2.2453079,6.3145103-2.3785477,8.6062088-0.3108902   c0.2862129,0.2585831,0.5280151,0.5230865,0.7431717,0.8117676c1.6906471,2.2551804,1.5455627,5.5619583-0.3562889,8.0357513   l-0.067112,0.0863571c-1.5880051,2.0632172-3.2302895,4.1965103-5.2249146,6.1926193   c-0.000988,0.0004959-0.001976,0.0014801-0.001976,0.001976C34.831562,82.8112183,32.9336548,83.6017609,31.0791759,83.6017609z    M34.812809,79.973732h0.0098686H34.812809z M29.477356,78.5776901c0.0088825,0.0197449,0.0187531,0.0399704,0.0266476,0.0587234   c0.2082462,0.4806442,0.597105,0.7782135,1.1547318,0.8843079c0.7056694,0.1371841,1.7972355-0.0503311,2.7259579-0.9770813   c1.8090782-1.8110504,3.3003616-3.748436,4.8794823-5.7998123l0.066124-0.0858612   c0.7875862-1.023468,0.9227982-2.3494339,0.3217468-3.1508408c-0.0602036-0.0814209-0.1263313-0.152977-0.2131805-0.2309494   c-0.783638-0.7071457-2.1870842-0.5472641-3.2628593,0.3765259c-2.658844,2.2833099-4.4698963,4.5977097-5.538763,7.0769272   C29.343132,77.4032211,29.2839146,78.1069183,29.477356,78.5776901z"/></g><text x="0" y="115" fill="#000000" font-size="5px" font-weight="bold" font-family="'Helvetica Neue', Helvetica, Arial-Unicode, Arial, Sans-serif">Created by kereviaolive</text><text x="0" y="120" fill="#000000" font-size="5px" font-weight="bold" font-family="'Helvetica Neue', Helvetica, Arial-Unicode, Arial, Sans-serif">from the Noun Project</text></svg>