<svg xmlns="http://www.w3.org/2000/svg" data-name="Layer 1" viewBox="0 0 95 118.75" x="0px" y="0px"><defs><style>.cls-1{fill-rule:evenodd;}</style></defs><title>a</title><path class="cls-1" d="M7.36,73.994A4.872,4.872,0,0,1,2.5,69.133V10.23A4.872,4.872,0,0,1,7.36,5.369H87.64A4.872,4.872,0,0,1,92.5,10.23v58.9a4.872,4.872,0,0,1-4.86,4.861H58.67v5.459h6.857a5.1,5.1,0,0,1,5.089,5.089v4.034a1.055,1.055,0,0,1-1.055,1.055H25.439a1.055,1.055,0,0,1-1.055-1.055V84.542a5.1,5.1,0,0,1,5.089-5.089H36.33V73.994Zm49.2,0H38.44v5.459H56.56V73.994ZM22.67,9.41h0a1.055,1.055,0,0,0,0,2.109h0a1.055,1.055,0,1,0,0-2.109Zm-4.693,0h0a1.055,1.055,0,0,0,0,2.109h0a1.055,1.055,0,1,0,0-2.109Zm-4.693,0h0a1.055,1.055,0,1,0,0,2.109h0a1.055,1.055,0,1,0,0-2.109ZM4.609,13.45H90.391V10.23A2.762,2.762,0,0,0,87.64,7.479H7.36A2.762,2.762,0,0,0,4.609,10.23v3.22Zm85.782,2.109H4.609V63.8H48.823V61.186A2.09,2.09,0,0,1,50.909,59.1h5.107V52.987H50.909a2.077,2.077,0,0,1-1.47-.612l0-.005a2.073,2.073,0,0,1-.612-1.47V44.148a2.09,2.09,0,0,1,2.086-2.086h5.107V35.949H50.909a2.073,2.073,0,0,1-1.47-.612l0,0a2.074,2.074,0,0,1-.612-1.47V27.111a2.09,2.09,0,0,1,2.086-2.086H85.65a2.09,2.09,0,0,1,2.086,2.086v6.752a2.09,2.09,0,0,1-2.086,2.086H80.543v6.113H85.65a2.09,2.09,0,0,1,2.086,2.086V50.9a2.09,2.09,0,0,1-2.086,2.087H80.543V59.1H85.65a2.09,2.09,0,0,1,2.086,2.087V63.8h2.655V15.559ZM48.823,65.913H4.609v3.22A2.762,2.762,0,0,0,7.36,71.884H87.64a2.762,2.762,0,0,0,2.751-2.751v-3.22H87.736v2.025a2.09,2.09,0,0,1-2.086,2.086H50.909a2.073,2.073,0,0,1-1.47-.612l0,0a2.076,2.076,0,0,1-.612-1.47V65.913Zm19.456-2.406h0a1.055,1.055,0,1,0,0,2.109h0a1.055,1.055,0,1,0,0-2.109Zm4.835,2.109h8.191a1.055,1.055,0,1,0,0-2.109H73.114a1.055,1.055,0,1,0,0,2.109Zm-17.861,0h8.192a1.055,1.055,0,0,0,0-2.109H55.253a1.055,1.055,0,1,0,0,2.109ZM68.279,46.47h0a1.055,1.055,0,1,0,0,2.109h0a1.055,1.055,0,1,0,0-2.109Zm4.835,2.109h8.191a1.055,1.055,0,1,0,0-2.109H73.114a1.055,1.055,0,1,0,0,2.109Zm-17.861,0h8.192a1.055,1.055,0,0,0,0-2.109H55.253a1.055,1.055,0,1,0,0,2.109ZM68.279,29.432h0a1.055,1.055,0,0,0,0,2.11h0a1.055,1.055,0,1,0,0-2.11Zm4.835,2.11h8.191a1.055,1.055,0,0,0,0-2.11H73.114a1.055,1.055,0,0,0,0,2.11Zm-17.861,0h8.192a1.055,1.055,0,0,0,0-2.11H55.253a1.055,1.055,0,1,0,0,2.11Zm23.18,10.52V35.949H58.125v6.113Zm0,17.037V52.987H58.125V59.1Zm7.194,8.815v-6.7H50.932v6.7Zm0-17.037V44.171H50.932v6.706Zm0-17.037V27.134H50.932V33.84ZM10.5,60.593H42.919a1.055,1.055,0,1,0,0-2.109H10.5a1.055,1.055,0,1,0,0,2.109Zm0-7.03H23.164a1.055,1.055,0,1,0,0-2.109H10.5a1.055,1.055,0,1,0,0,2.109Zm18.1,0H42.919a1.055,1.055,0,1,0,0-2.109H28.6a1.055,1.055,0,0,0,0,2.109ZM10.5,46.532H36.782a1.055,1.055,0,1,0,0-2.109H10.5a1.055,1.055,0,1,0,0,2.109Zm0-7.03H33.566a1.055,1.055,0,1,0,0-2.109H10.5a1.055,1.055,0,1,0,0,2.109Zm5.74-16.7-3.7,3.7a1.054,1.054,0,0,0,0,1.491l3.7,3.7a1.055,1.055,0,1,0,1.491-1.492l-2.958-2.957,2.958-2.958A1.054,1.054,0,0,0,16.241,22.8ZM26.3,24.293l2.957,2.958L26.3,30.208A1.055,1.055,0,1,0,27.791,31.7L31.5,28a1.056,1.056,0,0,0,0-1.491l-3.7-3.7A1.054,1.054,0,0,0,26.3,24.293Zm-4.242-1.268-2.119,7.907a1.053,1.053,0,1,0,2.035.544l2.119-7.907a1.053,1.053,0,1,0-2.035-.544ZM65.527,81.562H29.473a2.991,2.991,0,0,0-2.979,2.98v2.979H68.507V84.542a2.991,2.991,0,0,0-2.98-2.98Z"/><text x="0" y="110" fill="#000000" font-size="5px" font-weight="bold" font-family="'Helvetica Neue', Helvetica, Arial-Unicode, Arial, Sans-serif">Created by putrakali735</text><text x="0" y="115" fill="#000000" font-size="5px" font-weight="bold" font-family="'Helvetica Neue', Helvetica, Arial-Unicode, Arial, Sans-serif">from the Noun Project</text></svg>