<svg xmlns="http://www.w3.org/2000/svg" data-name="Layer 1" viewBox="0 0 95 118.75" x="0px" y="0px"><path d="M8.909,13.969A1.292,1.292,0,1,1,10.2,15.261h0A1.291,1.291,0,0,1,8.909,13.969Zm7.323,1.292h0a1.292,1.292,0,1,0-1.292-1.292A1.291,1.291,0,0,0,16.232,15.261Zm6.03,0h0a1.292,1.292,0,1,0-1.293-1.292A1.291,1.291,0,0,0,22.263,15.261Zm17.787,0H66.256a1.292,1.292,0,0,0,0-2.584H40.049a1.292,1.292,0,0,0,0,2.584Zm30.279,1.221a1.289,1.289,0,0,0,1.826,0l.687-.686.686.686a1.292,1.292,0,1,0,1.827-1.827l-.686-.686.686-.686a1.292,1.292,0,1,0-1.827-1.827l-.686.686-.687-.686a1.292,1.292,0,1,0-1.826,1.827l.686.686-.686.686A1.291,1.291,0,0,0,70.328,16.482Zm-46.4,30.9A10.753,10.753,0,1,1,34.676,36.627,10.765,10.765,0,0,1,23.923,47.38Zm0-2.583a8.17,8.17,0,1,0-8.169-8.17A8.179,8.179,0,0,0,23.923,44.8Zm4.1-1.708h-8.2A1.292,1.292,0,0,1,18.53,41.8v-.627a4.744,4.744,0,0,1,4.41-4.9,1.306,1.306,0,0,1,.983.4,1.3,1.3,0,0,1,.984-.4,4.744,4.744,0,0,1,4.409,4.9V41.8A1.291,1.291,0,0,1,28.024,43.089Zm-1.377-2.583a2.22,2.22,0,0,0-1.312-1.548l-.456.5a1.292,1.292,0,0,1-1.912,0l-.455-.5A2.223,2.223,0,0,0,21.2,40.506Zm-5.979-8.195a3.256,3.256,0,0,1,6.511,0c0,1.648-1.269,4.041-3.256,4.041S20.668,33.959,20.668,32.311Zm2.583,0a2.2,2.2,0,0,0,.672,1.436,2.2,2.2,0,0,0,.672-1.436.672.672,0,0,0-1.344,0Zm17.686,4.656h14.2a1.292,1.292,0,1,0,0-2.584H40.937a1.292,1.292,0,1,0,0,2.584Zm24.642,4.527A1.291,1.291,0,0,0,64.287,40.2H40.937a1.292,1.292,0,1,0,0,2.583h23.35A1.291,1.291,0,0,0,65.579,41.494ZM18.11,51.586a1.292,1.292,0,1,0,0,2.584H33.324a1.292,1.292,0,0,0,0-2.584ZM15.7,54.077a3.227,3.227,0,1,1-3.227-3.228A3.23,3.23,0,0,1,15.7,54.077Zm-2.583,0a.644.644,0,1,0-.644.644A.644.644,0,0,0,13.116,54.077Zm25.658,1.048H18.11a1.292,1.292,0,1,0,0,2.584H38.774a1.292,1.292,0,0,0,0-2.584Zm10.332-1.048a3.228,3.228,0,1,1-3.228-3.228A3.231,3.231,0,0,1,49.106,54.077Zm-2.584,0a.644.644,0,1,0-.644.644A.644.644,0,0,0,46.522,54.077ZM94,50.955V72.189a1.311,1.311,0,0,1-.061.393C90.519,83.285,84.4,86.1,75.456,89.169a1.292,1.292,0,0,1-.839,0C65.672,86.1,59.553,83.285,56.134,72.582a1.28,1.28,0,0,1-.061-.393V65.964H8.81A7.818,7.818,0,0,1,1,58.155V13.571a7.819,7.819,0,0,1,7.81-7.81h65.1a7.819,7.819,0,0,1,7.81,7.81v29.4c3.683,3.776,7.456,6.038,11.22,6.716A1.292,1.292,0,0,1,94,50.955ZM3.583,13.571v6.022h75.55V13.571a5.231,5.231,0,0,0-5.226-5.226H8.81A5.232,5.232,0,0,0,3.583,13.571Zm52.49,49.81V57.709H51.516a1.292,1.292,0,1,1,0-2.584h4.557V54.17H51.516a1.292,1.292,0,0,1,0-2.584h4.557v-.631a1.291,1.291,0,0,1,1.062-1.271c3.885-.7,7.78-3.082,11.576-7.079a1.291,1.291,0,0,1,.937-.4h9.485V22.177H3.583V58.155A5.232,5.232,0,0,0,8.81,63.381ZM91.417,52c-3.936-.972-7.812-3.394-11.541-7.214H70.2c-3.729,3.82-7.605,6.242-11.541,7.214V71.986c2.914,8.959,7.489,11.515,16.38,14.6C83.928,83.5,88.5,80.945,91.417,71.986Zm-9.754,6.361v2.108a3.162,3.162,0,0,1,2.585,3.1v7.845a3.163,3.163,0,0,1-3.16,3.159h-12.1a3.162,3.162,0,0,1-3.159-3.159V63.573a3.162,3.162,0,0,1,2.584-3.1V58.361a6.627,6.627,0,0,1,13.254,0Zm-10.67,0v2.053H79.08V58.361a4.044,4.044,0,1,0-8.087,0Zm10.671,5.212A.583.583,0,0,0,81.088,63h-12.1a.584.584,0,0,0-.576.576v7.845a.584.584,0,0,0,.576.576h12.1a.583.583,0,0,0,.576-.576Zm-6.628.266a2.585,2.585,0,0,0-1.291,4.826V69.8a1.292,1.292,0,1,0,2.583,0V68.665a2.585,2.585,0,0,0-1.292-4.826Z"/><text x="0" y="110" fill="#000000" font-size="5px" font-weight="bold" font-family="'Helvetica Neue', Helvetica, Arial-Unicode, Arial, Sans-serif">Created by Rokhman Kharis</text><text x="0" y="115" fill="#000000" font-size="5px" font-weight="bold" font-family="'Helvetica Neue', Helvetica, Arial-Unicode, Arial, Sans-serif">from the Noun Project</text></svg>