<svg xmlns="http://www.w3.org/2000/svg" data-name="Layer 1" viewBox="0 0 96 120" x="0px" y="0px"><path d="M91.582,15.73,77.723,1.871a1.262,1.262,0,0,0-.895-.371H28.171A1.267,1.267,0,0,0,26.9,2.767V5.88L15,7.23a1.266,1.266,0,0,0-1.116,1.4l.575,5.071L4.919,16.834a1.266,1.266,0,0,0-.809,1.6L18.39,61.919a16.163,16.163,0,0,0,2.587,9.3l.039.343-1.747,1.735a2.966,2.966,0,0,0-1.834-.644h-.022a2.978,2.978,0,0,0-2.1.861L5.893,82.794a3,3,0,0,0-.03,4.238h0l3.654,3.707a3,3,0,0,0,4.238.03l8.49-8.369.765,6.747a1.266,1.266,0,0,0,1.257,1.124,1.421,1.421,0,0,0,.144-.008L27.58,89.9,28.8,93.628a1.266,1.266,0,0,0,1.2.872,1.237,1.237,0,0,0,.395-.064L52.97,87.025l17.293-1.96H90.687A1.266,1.266,0,0,0,91.953,83.8V16.625A1.264,1.264,0,0,0,91.582,15.73ZM78.094,5.824l9.535,9.535H78.094ZM26.9,8.429V48.143a16.187,16.187,0,0,0-5.452,4.771L16.542,9.6ZM14.749,16.272l4.577,40.377L6.912,18.845ZM24.969,52.69a13.555,13.555,0,0,1,9.577-3.927h.1a13.644,13.644,0,1,1-9.677,3.927Zm-3.31,22.992-.593-.6,1.654-1.643c.1.109.2.22.308.328s.19.183.285.275Zm-.265,4-9.417,9.283a.471.471,0,0,1-.656-.005L7.666,85.254h0a.47.47,0,0,1,0-.656l9.417-9.284a.491.491,0,0,1,.329-.131.455.455,0,0,1,.327.136L21.4,79.026a.47.47,0,0,1-.005.656Zm2.762-2.91,1.12-1.112A16.1,16.1,0,0,0,26.9,76.665V83.8a1.266,1.266,0,0,0,1.267,1.266h19.6L25.384,87.6Zm6.658,14.863-.664-2.023,10.421-1.181Zm-1.377-9.1V77.75a16.291,16.291,0,0,0,5.113.828A16.174,16.174,0,0,0,49.925,67.447H80.788a1.267,1.267,0,1,0,0-2.533H50.534a16.477,16.477,0,0,0,.192-2.391,16.306,16.306,0,0,0-.231-2.838H80.788a1.267,1.267,0,1,0,0-2.533H49.856a16.078,16.078,0,0,0-2.992-5.229H80.788a1.267,1.267,0,1,0,0-2.533H44.156a16.059,16.059,0,0,0-9.492-3.16h-.119a16.193,16.193,0,0,0-5.108.824V4.033H75.561V16.625a1.267,1.267,0,0,0,1.267,1.267H89.42v64.64Zm52.618-47.4A1.266,1.266,0,0,1,80.788,36.4H38.069a1.267,1.267,0,0,1,0-2.533H80.788A1.267,1.267,0,0,1,82.055,35.133Zm0,7.762a1.266,1.266,0,0,1-1.267,1.266H38.069a1.267,1.267,0,0,1,0-2.533H80.788A1.267,1.267,0,0,1,82.055,42.9ZM36.8,27.856a1.266,1.266,0,0,1,1.266-1.266h22.7a1.267,1.267,0,0,1,0,2.533h-22.7A1.266,1.266,0,0,1,36.8,27.856Zm0-5.789A1.266,1.266,0,0,1,38.069,20.8H51.807a1.267,1.267,0,0,1,0,2.533H38.069A1.266,1.266,0,0,1,36.8,22.067Zm-2.331,51.08h.079a10.982,10.982,0,1,0-.079,0ZM34.607,54.2a8.155,8.155,0,0,1,5.786,2.445c.161.164.312.333.458.507H38.069a1.267,1.267,0,0,0,0,2.533H42.3a8.283,8.283,0,0,1,.07,5.229h-4.3a1.267,1.267,0,0,0,0,2.533h2.956a8.347,8.347,0,0,1-.715.8,8.152,8.152,0,0,1-5.76,2.363h-.06a8.145,8.145,0,0,1-5.053-1.787V55.986a8.148,8.148,0,0,1,5.11-1.786Zm-7.7,5.227v5.965A8.26,8.26,0,0,1,26.9,59.427Z"/><text x="0" y="111" fill="#000000" font-size="5px" font-weight="bold" font-family="'Helvetica Neue', Helvetica, Arial-Unicode, Arial, Sans-serif">Created by Nuzulis Syafaah</text><text x="0" y="116" fill="#000000" font-size="5px" font-weight="bold" font-family="'Helvetica Neue', Helvetica, Arial-Unicode, Arial, Sans-serif">from the Noun Project</text></svg>